<?xml version="1.0" encoding="utf-8"?>
<!-- Generator: Adobe Illustrator 22.1.0, SVG Export Plug-In . SVG Version: 6.00 Build 0)  -->
<svg version="1.1" id="Layer_1" xmlns="http://www.w3.org/2000/svg" xmlns:xlink="http://www.w3.org/1999/xlink" x="0px" y="0px"
	 viewBox="0 0 100 100" style="enable-background:new 0 0 100 100;" xml:space="preserve">
<style type="text/css">
	.st0{fill:none;stroke:#000000;stroke-width:2.5975;stroke-miterlimit:10;}
	.st1{fill:#FFFFFF;stroke:#000000;stroke-width:2.5975;stroke-miterlimit:10;}
	.st2{fill:#FFFFFF;stroke:#000000;stroke-width:2.2428;stroke-miterlimit:10;}
	.st3{fill:none;stroke:#000000;stroke-width:2.2428;stroke-miterlimit:10;}
</style>
<g>
	<path class="st0" d="M89.1,97.3H11.4c-3.3,0-6-2.7-6-6V38.9c0-3.3,2.7-6,6-6h77.7c3.3,0,6,2.7,6,6v52.4
		C95.2,94.5,92.5,97.3,89.1,97.3z"/>
	<path class="st0" d="M51.7,32.8c0-21.6,12.5-23.3,12.5-23.3"/>
	<circle class="st1" cx="64.7" cy="9.5" r="6.8"/>
	<path class="st2" d="M27.8,87.6L24.6,89c-0.6,0.3-1.3,0-1.6-0.6l-9.2-20.3c-0.3-0.6,0-1.3,0.6-1.6l3.2-1.4c0.6-0.3,1.3,0,1.6,0.6
		L28.4,86C28.7,86.6,28.4,87.3,27.8,87.6z"/>
	<line class="st3" x1="16.9" y1="75" x2="22.3" y2="72.5"/>
	<line class="st3" x1="20" y1="81.3" x2="25.2" y2="78.9"/>
	<path class="st3" d="M47.1,84.7c19.3-0.4,19-9.2,19-9.2"/>
	<path class="st3" d="M42.3,55.1c0.1,3.3-2,6.3-5.3,7.3c-4,1.2-8.2-1-9.4-5c-1-3.2,0.3-6.6,3-8.4"/>
	<line class="st3" x1="24.1" y1="45.9" x2="42.3" y2="55.6"/>
	<path class="st3" d="M59.7,54.5c-0.4,3.2,1.5,6.5,4.6,7.8c3.8,1.6,8.2-0.3,9.8-4.1c1.3-3.1,0.3-6.6-2.2-8.7"/>
	<line class="st3" x1="78.7" y1="47" x2="59.7" y2="55"/>
</g>
</svg>
