<?xml version="1.0" encoding="utf-8"?>
<!-- Generator: Adobe Illustrator 22.1.0, SVG Export Plug-In . SVG Version: 6.00 Build 0)  -->
<svg version="1.1" id="Layer_1" xmlns="http://www.w3.org/2000/svg" xmlns:xlink="http://www.w3.org/1999/xlink" x="0px" y="0px"
	 viewBox="0 0 2692.6 720" style="enable-background:new 0 0 2692.6 720;" xml:space="preserve">
<style type="text/css">
	.st0{fill:none;stroke:#FFFFFF;stroke-width:26.8423;stroke-miterlimit:10;}
	.st1{fill:none;stroke:#FFFFFF;stroke-width:25.6752;stroke-miterlimit:10;}
	.st2{fill:#FFFFFF;}
	.st3{font-family:'DINAlternate-Bold';}
	.st4{font-size:470px;}
</style>
<path class="st0" d="M621.3,695.6H92.7c-13,0-23.5-10.5-23.5-23.5V216.7c0-13,10.5-23.5,23.5-23.5h528.6c13,0,23.5,10.5,23.5,23.5
	v455.4C644.9,685.1,634.3,695.6,621.3,695.6z"/>
<path class="st0" d="M122.8,316c131.5,2,204.7,0,204.7,0c0,118.7-102.4,121.7-102.4,121.7C124.8,440.6,122.8,316,122.8,316z"/>
<path class="st0" d="M381.7,315c131.5,2,204.7,0,204.7,0c0,118.7-102.4,121.7-102.4,121.7C383.7,439.6,381.7,315,381.7,315z"/>
<line class="st0" x1="69.2" y1="320.8" x2="125" y2="337.5"/>
<line class="st0" x1="585.2" y1="336.6" x2="644.9" y2="316"/>
<path class="st0" d="M305.6,394.4c47.5-48.9,98.7,0,98.7,0"/>
<path class="st0" d="M189.9,531.5c9.9,83.1,167.1,67.3,167.1,67.3"/>
<path class="st0" d="M357,193.2c-2-133.5,73.2-127.6,73.2-127.6"/>
<circle class="st1" cx="474" cy="67.8" r="48.7"/>
<text transform="matrix(1 0 0 1 816.5759 565.6864)" class="st2 st3 st4">SpecBots</text>
</svg>
