<?xml version="1.0" encoding="utf-8"?>
<!-- Generator: Adobe Illustrator 22.1.0, SVG Export Plug-In . SVG Version: 6.00 Build 0)  -->
<svg version="1.1" id="Layer_1" xmlns="http://www.w3.org/2000/svg" xmlns:xlink="http://www.w3.org/1999/xlink" x="0px" y="0px"
	 viewBox="0 0 100 100" style="enable-background:new 0 0 100 100;" xml:space="preserve">
<g id="Page-1">
	<g id="Icons-Communication" transform="translate(-85.000000, -126.000000)">
		<g id="phone" transform="translate(85.000000, 126.000000)">
			<path id="Shape" d="M21,43.7c7.4,14.8,20,26.9,34.8,34.8l11.6-11.6c1.6-1.6,3.7-2.1,5.3-1.1c5.8,2.1,12.1,3.2,19,3.2
				c3.2,0,5.3,2.1,5.3,5.3v17.9c0,3.2-2.1,5.3-5.3,5.3C42.1,97.4,2,57.4,2,7.8c0-3.2,2.1-5.3,5.3-5.3h18.5c3.2,0,5.3,2.1,5.3,5.3
				c0,6.3,1.1,12.7,3.2,19c0.5,1.6,0,3.7-1.1,5.3L21,43.7L21,43.7z"/>
		</g>
	</g>
</g>
</svg>
